<mxfile host="Electron" modified="2024-07-24T21:53:09.172Z" agent="Mozilla/5.0 (Windows NT 10.0; Win64; x64) AppleWebKit/537.36 (KHTML, like Gecko) draw.io/24.2.5 Chrome/120.0.6099.109 Electron/28.1.0 Safari/537.36" etag="5n9O_3E_vxEWqNOlN9Qm" version="24.2.5" type="device">
  <diagram name="第 1 页" id="QaxQXMMB2viIyQJMlUey">
    <mxGraphModel dx="1802" dy="909" grid="1" gridSize="10" guides="1" tooltips="1" connect="1" arrows="1" fold="1" page="1" pageScale="1" pageWidth="1169" pageHeight="1654" math="0" shadow="0">
      <root>
        <mxCell id="0" />
        <mxCell id="1" parent="0" />
      </root>
    </mxGraphModel>
  </diagram>
</mxfile>
